<?xml version="1.0" standalone="no"?>
<!DOCTYPE svg PUBLIC "-//W3C//DTD SVG 1.1//EN" "http://www.w3.org/Graphics/SVG/1.1/DTD/svg11.dtd" >
<svg 
    xmlns="http://www.w3.org/2000/svg" 
    xmlns:xlink="http://www.w3.org/1999/xlink" 
    version="1.1" 
    viewBox="0 0 2048 2048"
>
    <path 
        fill="currentColor"
        d="
        M1861.5 1377
        l-95 261
        h-800
        v-37
        q353 -322 497 -526
        t144 -373
        q0 -129 -79 -212
        t-189 -83
        q-100 0 -179.5 58.5
        t-117.5 171.5
        h-37
        q25 -185 128.5 -284
        t258.5 -99
        q165 0 275.5 106
        t110.5 250
        q0 103 -48 206
        q-74 162 -240 343
        q-249 272 -311 328
        h354
        q108 0 151.5 -8
        t78.5 -32.5
        t61 -69.5
        h37
        z"
    />
    <path 
        fill="currentColor"
        d="
        M186.5 1377
        l95 261
        h800
        v-37
        q-353 -322 -497 -526
        t-144 -373
        q-0 -129 79 -212
        t189 -83
        q100 0 179.5 58.5
        t117.5 171.5
        h37
        q-25 -185 -128.5 -284
        t-258.5 -99
        q-165 0 -275.5 106
        t-110.5 250
        q0 103 48 206
        q74 162 240 343
        q249 272 311 328
        h-354
        q-108 0 -151.5 -8
        t-78.5 -32.5
        t-61 -69.5
        h-37
        z"
    />
</svg>
